<?xml version="1.0" encoding="UTF-8" standalone="no"?>
<!DOCTYPE svg PUBLIC "-//W3C//DTD SVG 1.1//EN"
 "http://www.w3.org/Graphics/SVG/1.1/DTD/svg11.dtd">
<!-- Generated by graphviz version 12.1.1 (20240910.0053)
 -->
<!-- Title: INFRA Pages: 1 -->
<svg width="128pt" height="188pt"
 viewBox="0.00 0.00 128.25 188.00" xmlns="http://www.w3.org/2000/svg" xmlns:xlink="http://www.w3.org/1999/xlink">
<g id="graph0" class="graph" transform="scale(1 1) rotate(0) translate(4 184)">
<title>INFRA</title>
<polygon fill="white" stroke="none" points="-4,4 -4,-184 124.25,-184 124.25,4 -4,4"/>
<!-- cnae_mysql -->
<g id="node1" class="node">
<title>cnae_mysql</title>
<path fill="#ffcfb3" stroke="black" stroke-width="2" d="M115.97,-65.45C115.97,-69.07 90.94,-72 60.12,-72 29.31,-72 4.28,-69.07 4.28,-65.45 4.28,-65.45 4.28,-6.55 4.28,-6.55 4.28,-2.93 29.31,0 60.12,0 90.94,0 115.97,-2.93 115.97,-6.55 115.97,-6.55 115.97,-65.45 115.97,-65.45"/>
<path fill="none" stroke="black" stroke-width="2" d="M115.97,-65.45C115.97,-61.84 90.94,-58.91 60.12,-58.91 29.31,-58.91 4.28,-61.84 4.28,-65.45"/>
<text text-anchor="middle" x="60.12" y="-40.2" font-family="Arial" font-size="14.00">cnae_mysql</text>
<text text-anchor="middle" x="60.12" y="-23.4" font-family="Arial" font-size="14.00">(docker::mysql)</text>
</g>
<!-- cnae_app -->
<g id="node2" class="node">
<title>cnae_app</title>
<path fill="#b7e0ff" stroke="black" stroke-width="2" d="M108.25,-180C108.25,-180 12,-180 12,-180 6,-180 0,-174 0,-168 0,-168 0,-120 0,-120 0,-114 6,-108 12,-108 12,-108 108.25,-108 108.25,-108 114.25,-108 120.25,-114 120.25,-120 120.25,-120 120.25,-168 120.25,-168 120.25,-174 114.25,-180 108.25,-180"/>
<text text-anchor="middle" x="60.12" y="-148.2" font-family="Arial" font-size="14.00">cnae_app</text>
<text text-anchor="middle" x="60.12" y="-131.4" font-family="Arial" font-size="14.00">(docker::custom)</text>
</g>
<!-- cnae_app&#45;&gt;cnae_mysql -->
<g id="edge1" class="edge">
<title>cnae_app&#45;&gt;cnae_mysql</title>
<path fill="none" stroke="black" d="M60.12,-107.7C60.12,-99.93 60.12,-91.57 60.12,-83.43"/>
<polygon fill="black" stroke="black" points="63.62,-83.66 60.12,-73.66 56.62,-83.66 63.62,-83.66"/>
</g>
</g>
</svg>
